<svg xmlns="http://www.w3.org/2000/svg" viewBox="0 0 64 64" role="img" aria-label="Bellare Grants favicon">
  <defs>
    <linearGradient id="bg" x1="8" y1="6" x2="56" y2="58" gradientUnits="userSpaceOnUse">
      <stop offset="0" stop-color="#ffffff" />
      <stop offset="1" stop-color="#eef2f7" />
    </linearGradient>
  </defs>
  <rect x="2.5" y="2.5" width="59" height="59" rx="14" fill="url(#bg)" stroke="#050a1633" />
  <g transform="translate(11 11) scale(1.75)">
    <path d="M12 3l1.6 4.4L18 9l-4.4 1.6L12 15l-1.6-4.4L6 9l4.4-1.6L12 3z" fill="#0b3fb3"/>
    <path d="M5 16l0.8 2.2L8 19l-2.2 0.8L5 22l-0.8-2.2L2 19l2.2-0.8L5 16z" fill="#050a16"/>
    <path d="M19 16l0.8 2.2L22 19l-2.2 0.8L19 22l-0.8-2.2L16 19l2.2-0.8L19 16z" fill="#050a16"/>
  </g>
</svg>
