<svg xmlns="http://www.w3.org/2000/svg" width="1200" height="630" viewBox="0 0 1200 630" role="img" aria-label="Bellare Grants social preview image">
  <defs>
    <linearGradient id="bgFade" x1="0" y1="0" x2="1" y2="1">
      <stop offset="0" stop-color="#f8fafc"/>
      <stop offset="1" stop-color="#eef2f7"/>
    </linearGradient>
    <radialGradient id="haloBlue" cx="0.18" cy="0.08" r="0.6">
      <stop offset="0" stop-color="#0b3fb3" stop-opacity="0.18"/>
      <stop offset="1" stop-color="#0b3fb3" stop-opacity="0"/>
    </radialGradient>
    <radialGradient id="haloDark" cx="0.82" cy="0.03" r="0.52">
      <stop offset="0" stop-color="#050a16" stop-opacity="0.12"/>
      <stop offset="1" stop-color="#050a16" stop-opacity="0"/>
    </radialGradient>
    <linearGradient id="panelGradient" x1="0" y1="0" x2="1" y2="1">
      <stop offset="0" stop-color="#ffffff" stop-opacity="0.96"/>
      <stop offset="1" stop-color="#f6f8fc" stop-opacity="0.93"/>
    </linearGradient>
    <pattern id="grid" width="48" height="48" patternUnits="userSpaceOnUse">
      <path d="M48 0H0V48" fill="none" stroke="#050a16" stroke-opacity="0.08" stroke-width="1"/>
    </pattern>
    <filter id="shadow" x="-30%" y="-30%" width="160%" height="160%">
      <feDropShadow dx="0" dy="18" stdDeviation="24" flood-color="#050a16" flood-opacity="0.18"/>
    </filter>
  </defs>

  <rect width="1200" height="630" fill="url(#bgFade)"/>
  <rect width="1200" height="630" fill="url(#haloBlue)"/>
  <rect width="1200" height="630" fill="url(#haloDark)"/>
  <rect width="1200" height="630" fill="url(#grid)" opacity="0.28"/>

  <rect x="80" y="74" width="1040" height="482" rx="36" fill="url(#panelGradient)" stroke="#050a16" stroke-opacity="0.16" filter="url(#shadow)"/>

  <g transform="translate(162 142)">
    <path d="M88 0l11.7 32.3L132 44l-32.3 11.7L88 88 76.3 55.7 44 44l32.3-11.7L88 0z" fill="#0b3fb3"/>
    <path d="M24 104l5.9 16.1L46 126l-16.1 5.9L24 148l-5.9-16.1L2 126l16.1-5.9L24 104z" fill="#050a16"/>
    <path d="M152 104l5.9 16.1L174 126l-16.1 5.9L152 148l-5.9-16.1L130 126l16.1-5.9L152 104z" fill="#050a16"/>
  </g>

  <text x="330" y="210" fill="#0b3fb3" font-size="78" font-family="Sora, Helvetica Neue, Arial, sans-serif" font-weight="700" letter-spacing="1.5">BELLARE</text>
  <text x="330" y="286" fill="#0b3fb3" font-size="78" font-family="Sora, Helvetica Neue, Arial, sans-serif" font-weight="700" letter-spacing="1.5">GRANTS</text>

  <text x="330" y="354" fill="#2e3644" font-size="34" font-family="Sora, Helvetica Neue, Arial, sans-serif" font-weight="500">
    No-strings-attached microgrants up to 1 lakh INR
  </text>

  <g transform="translate(330 404)">
    <rect x="0" y="0" width="160" height="46" rx="23" fill="#ffffff" stroke="#050a16" stroke-opacity="0.18"/>
    <text x="80" y="30" text-anchor="middle" fill="#050a16" font-size="22" font-family="Sora, Helvetica Neue, Arial, sans-serif" font-weight="600">Education</text>

    <rect x="182" y="0" width="136" height="46" rx="23" fill="#ffffff" stroke="#050a16" stroke-opacity="0.18"/>
    <text x="250" y="30" text-anchor="middle" fill="#050a16" font-size="22" font-family="Sora, Helvetica Neue, Arial, sans-serif" font-weight="600">Medical</text>

    <rect x="340" y="0" width="148" height="46" rx="23" fill="#ffffff" stroke="#050a16" stroke-opacity="0.18"/>
    <text x="414" y="30" text-anchor="middle" fill="#050a16" font-size="22" font-family="Sora, Helvetica Neue, Arial, sans-serif" font-weight="600">Research</text>

    <rect x="510" y="0" width="176" height="46" rx="23" fill="#ffffff" stroke="#050a16" stroke-opacity="0.18"/>
    <text x="598" y="30" text-anchor="middle" fill="#050a16" font-size="22" font-family="Sora, Helvetica Neue, Arial, sans-serif" font-weight="600">Open Source</text>
  </g>

  <text x="1022" y="522" text-anchor="end" fill="#2e3644" font-size="24" font-family="Sora, Helvetica Neue, Arial, sans-serif" font-weight="500">bellaregrants.netlify.app</text>
</svg>
